<svg width="10" height="10" viewBox="0 0 10 10" fill="none" xmlns="http://www.w3.org/2000/svg">
<path d="M10 5C10 2.24325 7.75675 0 5 0C2.24325 0 0 2.24325 0 5C0 7.75725 2.24325 10 5 10C7.75675 10 10 7.75725 10 5ZM3.575 7.7715C3.39175 7.61625 3.2965 7.394 3.296 7.171C3.296 6.99025 3.35675 6.80925 3.4825 6.66075L4.88925 4.99925L3.4775 3.342C3.1945 3.0105 3.2345 2.51375 3.566 2.23075C3.8975 1.9485 4.39475 1.988 4.67725 2.31925L6.52425 4.48575C6.77425 4.78 6.77525 5.21175 6.52575 5.50625L4.687 7.6795C4.40475 8.01175 3.90725 8.05275 3.575 7.7715Z" fill="#F15D22"/>
</svg>
