<svg width="40" height="50" viewBox="0 0 40 50" fill="none" xmlns="http://www.w3.org/2000/svg">
<g clip-path="url(#clip0_5487_6181)">
<path d="M39.9 20.8101V10.1601C39.8937 9.65147 39.7323 9.15685 39.4375 8.74231C39.1427 8.32777 38.7284 8.01303 38.25 7.84012L20.33 0.0801195C20.21 0.0283907 20.0807 0.00170898 19.95 0.00170898C19.8193 0.00170898 19.69 0.0283907 19.57 0.0801195L1.65 7.86012C1.1716 8.03304 0.757336 8.34777 0.462511 8.76231C0.167687 9.17685 0.00633643 9.67147 1.48274e-06 10.1801V22.9001C1.48274e-06 23.0801 0.0500015 23.2601 0.150001 23.4201L1.4 25.3801L0.530001 25.8201C0.370461 25.9 0.236354 26.0229 0.142734 26.1748C0.0491149 26.3267 -0.000312085 26.5017 1.48274e-06 26.6801V28.4801C1.48274e-06 31.7801 0.900001 35.0601 2.6 37.9401C2.72 38.1401 2.9 38.3001 3.13 38.3701L3.81 38.5901L3.71 38.9301C3.61 39.2301 3.66 39.5601 3.85 39.8101C5.91768 42.5229 8.64856 44.658 11.78 46.0101L19.58 49.3001C19.6972 49.3491 19.823 49.3743 19.95 49.3743C20.077 49.3743 20.2028 49.3491 20.32 49.3001L28.12 46.0001C28.63 45.7801 28.85 45.2701 29.17 44.1401L29.18 44.1001L30.06 44.5301C30.36 44.6701 30.72 44.6501 31 44.4701C33.7104 42.768 35.9473 40.4091 37.5031 37.6121C39.0589 34.8152 39.8834 31.6706 39.9 28.4701V27.3501C39.9 27.1501 39.84 26.9501 39.72 26.7901L37.84 24.1201L39.73 21.3601C39.8416 21.1985 39.9009 21.0065 39.9 20.8101ZM37.97 20.5101L35.87 23.5901C35.7573 23.7514 35.6968 23.9434 35.6968 24.1401C35.6968 24.3369 35.7573 24.5289 35.87 24.6901L37.97 27.6601V28.4801C37.97 34.0801 35.15 39.3001 30.4 42.5501L28.96 41.8501C28.8291 41.7861 28.6854 41.7528 28.5398 41.7526C28.3941 41.7524 28.2503 41.7853 28.1193 41.8489C27.9882 41.9125 27.8734 42.0051 27.7834 42.1197C27.6934 42.2342 27.6307 42.3677 27.6 42.5101C27.45 43.1501 27.23 43.9701 27.08 44.3501L19.95 47.3601L12.54 44.2301C9.87412 43.0782 7.52713 41.2974 5.7 39.0401L5.95 38.2801C5.99046 38.1593 6.00648 38.0317 5.99713 37.9047C5.98778 37.7777 5.95325 37.6538 5.89555 37.5403C5.83784 37.4267 5.75812 37.3258 5.66103 37.2433C5.56393 37.1609 5.45141 37.0986 5.33 37.0601L4.08 36.6601C2.67456 34.1626 1.93423 31.3459 1.93 28.4801V27.2801L3.22 26.6201C3.33959 26.5599 3.44526 26.4753 3.53022 26.3719C3.61519 26.2684 3.67757 26.1483 3.71335 26.0193C3.74914 25.8902 3.75754 25.7552 3.73802 25.6227C3.7185 25.4902 3.67149 25.3633 3.6 25.2501L1.93 22.6201V10.1801C1.93 9.95012 2.09 9.75012 2.33 9.66012L2.39 9.64012L19.95 2.02012L37.52 9.62012L37.58 9.64012C37.82 9.73012 37.97 9.93012 37.97 10.1601V20.5001V20.5101Z" fill="#F15D22"/>
<path d="M33.7499 25.1001C33.623 25.0987 33.4971 25.1226 33.3795 25.1703C33.2619 25.2179 33.1549 25.2884 33.0646 25.3777C32.9744 25.467 32.9028 25.5732 32.854 25.6904C32.8051 25.8075 32.7799 25.9332 32.7799 26.0601V28.4101C32.7799 33.1101 29.8499 37.4401 25.3099 39.4101L19.9499 41.6801L14.5799 39.4101C12.3998 38.5019 10.5319 36.9775 9.20505 35.0237C7.87823 33.0699 7.15013 30.7715 7.10994 28.4101V13.2901L19.9499 7.72007L32.7799 13.2701V17.3401C32.7799 17.596 32.8816 17.8415 33.0626 18.0224C33.2436 18.2034 33.489 18.3051 33.7449 18.3051C34.0009 18.3051 34.2463 18.2034 34.4273 18.0224C34.6083 17.8415 34.7099 17.596 34.7099 17.3401V12.6401C34.7116 12.4511 34.6574 12.2659 34.5543 12.1075C34.4511 11.9492 34.3035 11.8249 34.1299 11.7501L20.3299 5.78007C20.2099 5.72834 20.0806 5.70166 19.9499 5.70166C19.8193 5.70166 19.6899 5.72834 19.5699 5.78007L5.76994 11.7801C5.59797 11.8542 5.45143 11.977 5.34838 12.1334C5.24533 12.2897 5.19025 12.4728 5.18994 12.6601V28.4001C5.18994 33.8701 8.56994 38.8901 13.8199 41.1701L19.5699 43.6101C19.6887 43.6599 19.8162 43.6855 19.9449 43.6855C20.0737 43.6855 20.2012 43.6599 20.3199 43.6101L26.0699 41.1801H26.0799C28.6064 40.1212 30.7687 38.3479 32.3017 36.0777C33.8347 33.8075 34.6717 31.1391 34.7099 28.4001V26.0501C34.7099 25.7955 34.6088 25.5513 34.4288 25.3712C34.2487 25.1912 34.0045 25.0901 33.7499 25.0901V25.1001Z" fill="#F15D22"/>
<path d="M34.6399 21.3501C34.5629 21.1622 34.4288 21.0032 34.2566 20.8955C34.0843 20.7879 33.8826 20.737 33.68 20.7501C33.4822 20.7649 33.2938 20.8399 33.1401 20.9651C32.9863 21.0902 32.8746 21.2595 32.82 21.4501C32.7099 21.8401 32.8599 22.2701 33.1899 22.5001C33.5099 22.7301 33.95 22.7401 34.29 22.5201C34.4735 22.3947 34.6085 22.2101 34.6722 21.9971C34.7359 21.7841 34.7245 21.5557 34.6399 21.3501ZM28.4 20.5001L19.43 29.2001C18.77 29.8501 17.69 29.8501 17.03 29.2001L12.4 24.7101C12.2436 24.559 12.1193 24.378 12.0343 24.1778C11.9494 23.9777 11.9056 23.7625 11.9056 23.5451C11.9056 23.3277 11.9494 23.1125 12.0343 22.9123C12.1193 22.7122 12.2436 22.5312 12.4 22.3801C12.7235 22.072 13.1532 21.9001 13.6 21.9001C14.0467 21.9001 14.4764 22.072 14.8 22.3801L18.23 25.7001L25.99 18.1701C26.314 17.859 26.7458 17.6853 27.195 17.6853C27.6441 17.6853 28.0759 17.859 28.4 18.1701C29.06 18.8101 29.06 19.8601 28.4 20.5001Z" fill="#F15D22"/>
</g>
<defs>
<clipPath id="clip0_5487_6181">
<rect width="40" height="50" fill="white"/>
</clipPath>
</defs>
</svg>
