<svg width="53" height="53" viewBox="0 0 53 53" fill="none" xmlns="http://www.w3.org/2000/svg">
<g clip-path="url(#clip0_5487_6200)">
<path d="M50.35 0.110107H2.65C1.94718 0.110107 1.27314 0.389303 0.776167 0.886274C0.279196 1.38325 0 2.05728 0 2.76011L0 25.7301C0 26.4329 0.279196 27.107 0.776167 27.6039C1.27314 28.1009 1.94718 28.3801 2.65 28.3801H50.35C51.0528 28.3801 51.7269 28.1009 52.2238 27.6039C52.7208 27.107 53 26.4329 53 25.7301V2.76011C53 2.05728 52.7208 1.38325 52.2238 0.886274C51.7269 0.389303 51.0528 0.110107 50.35 0.110107ZM51.23 25.7301C51.23 26.2201 50.83 26.6101 50.35 26.6101H2.65C2.41661 26.6101 2.19278 26.5174 2.02775 26.3524C1.86271 26.1873 1.77 25.9635 1.77 25.7301V2.76011C1.77 2.28011 2.17 1.88011 2.65 1.88011H50.35C50.84 1.88011 51.23 2.28011 51.23 2.76011V25.7301Z" fill="#F15D22"/>
<path d="M48.58 8.0599C47.6438 8.0599 46.7459 7.68799 46.0839 7.02599C45.4219 6.36399 45.05 5.46612 45.05 4.5299C45.05 4.0399 44.65 3.6499 44.17 3.6499H8.83003C8.35003 3.6499 7.95003 4.0499 7.95003 4.5299C7.95003 4.99347 7.85872 5.4525 7.68132 5.88077C7.50392 6.30905 7.24391 6.6982 6.91612 7.02599C6.58833 7.35378 6.19918 7.6138 5.7709 7.7912C5.34262 7.9686 4.8836 8.0599 4.42003 8.0599C3.92003 8.0599 3.53003 8.4599 3.53003 8.9499V19.5499C3.53003 20.0399 3.93003 20.4299 4.42003 20.4299C5.35624 20.4299 6.25411 20.8018 6.91612 21.4638C7.57812 22.1258 7.95003 23.0237 7.95003 23.9599C7.95003 24.4599 8.35003 24.8499 8.83003 24.8499H44.17C44.65 24.8499 45.05 24.4499 45.05 23.9599C45.05 23.4963 45.1413 23.0373 45.3187 22.609C45.4961 22.1807 45.7562 21.7916 46.0839 21.4638C46.4117 21.136 46.8009 20.876 47.2292 20.6986C47.6574 20.5212 48.1165 20.4299 48.58 20.4299C49.08 20.4299 49.47 20.0299 49.47 19.5499V8.9499C49.47 8.4599 49.07 8.0599 48.58 8.0599ZM9.65003 23.0799C9.46568 21.9942 8.94774 20.9929 8.16817 20.2152C7.3886 19.4374 6.38612 18.9218 5.30003 18.7399V9.7199C6.38612 9.53806 7.3886 9.02242 8.16817 8.24464C8.94774 7.46686 9.46568 6.46557 9.65003 5.3799H20.65C19.1917 6.34668 17.9953 7.65944 17.1676 9.20106C16.34 10.7427 15.9069 12.4652 15.9069 14.2149C15.9069 15.9646 16.34 17.6871 17.1676 19.2288C17.9953 20.7704 19.1917 22.0831 20.65 23.0499L9.65003 23.0799ZM26.5 5.4099C28.8432 5.4099 31.0904 6.34073 32.7473 7.99761C34.4042 9.6545 35.335 11.9017 35.335 14.2449C35.335 16.5881 34.4042 18.8353 32.7473 20.4922C31.0904 22.1491 28.8432 23.0799 26.5 23.0799C24.1568 23.0799 21.9096 22.1491 20.2527 20.4922C18.5959 18.8353 17.665 16.5881 17.665 14.2449C17.665 11.9017 18.5959 9.6545 20.2527 7.99761C21.9096 6.34073 24.1568 5.4099 26.5 5.4099ZM47.7 18.7399C46.6139 18.9218 45.6115 19.4374 44.8319 20.2152C44.0523 20.9929 43.5344 21.9942 43.35 23.0799H32.35C33.8084 22.1131 35.0048 20.8004 35.8324 19.2587C36.66 17.7171 37.0932 15.9946 37.0932 14.2449C37.0932 12.4952 36.66 10.7727 35.8324 9.23106C35.0048 7.68944 33.8084 6.37668 32.35 5.4099H43.35C43.5419 6.48828 44.0632 7.48072 44.8421 8.25074C45.6211 9.02075 46.6195 9.53051 47.7 9.7099V18.7399ZM16.34 38.0999C17.07 38.0999 17.67 37.4999 17.67 36.7699V31.4699C17.67 30.7399 17.07 30.1499 16.34 30.1499H8.40003C7.67003 30.1499 7.08003 30.7499 7.08003 31.4699V36.7699C7.08003 37.4999 7.67003 38.0999 8.40003 38.0999H16.35H16.34ZM8.84003 31.9099H15.9V36.3299H8.83003V31.9099H8.84003ZM30.48 41.6299C31.21 41.6299 31.8 41.0299 31.8 40.3099V31.4699C31.8 30.7399 31.2 30.1499 30.48 30.1499H22.52C21.79 30.1499 21.2 30.7499 21.2 31.4699V40.3099C21.2 41.0399 21.8 41.6299 22.52 41.6299H30.48ZM22.97 31.9099H30.03V39.8599H22.97V31.9099ZM44.6 30.1499H36.66C35.93 30.1499 35.33 30.7499 35.33 31.4699V43.3999H34.55C34.2974 43.4048 34.0514 43.4816 33.8408 43.6212C33.6302 43.7609 33.4637 43.9576 33.3609 44.1885C33.2581 44.4193 33.2231 44.6746 33.2602 44.9246C33.2972 45.1746 33.4047 45.4088 33.57 45.5999L39.65 52.4399C39.7748 52.5789 39.9274 52.6902 40.098 52.7663C40.2685 52.8424 40.4532 52.8818 40.64 52.8818C40.8268 52.8818 41.0115 52.8424 41.1821 52.7663C41.3527 52.6902 41.5053 52.5789 41.63 52.4399L47.7 45.5999C47.8703 45.4096 47.9816 45.174 48.0207 44.9216C48.0597 44.6693 48.0247 44.4111 47.9199 44.1782C47.8151 43.9454 47.6451 43.7479 47.4303 43.6097C47.2156 43.4716 46.9654 43.3987 46.71 43.3999H45.93V31.4699C45.93 30.7399 45.34 30.1499 44.61 30.1499H44.6ZM40.64 50.8999L35.54 45.1599H35.78C36.52 45.1599 37.11 44.5699 37.11 43.8399V31.9099H44.18V43.8399C44.18 44.5699 44.77 45.1599 45.5 45.1599H45.74L40.64 50.8999Z" fill="#F15D22"/>
<path d="M21.2801 18.9299H23.2001V20.6999C23.2001 20.7999 23.2301 20.8599 23.2801 20.9199C23.3301 20.9699 23.3901 20.9999 23.4801 20.9999H24.9101C24.9801 20.9999 25.0501 20.9699 25.1101 20.9199C25.138 20.8908 25.1595 20.8562 25.1732 20.8184C25.187 20.7805 25.1927 20.7402 25.1901 20.6999V18.9299H29.5301C29.6101 18.9299 29.6701 18.8999 29.7301 18.8499C29.7793 18.7914 29.8043 18.7163 29.8001 18.6399V17.4499C29.7991 17.3757 29.7706 17.3044 29.7201 17.2499C29.6963 17.2194 29.666 17.1946 29.6314 17.1773C29.5968 17.16 29.5587 17.1507 29.5201 17.1499H25.2001V16.0699H28.1201C29.2601 16.0699 30.2001 15.6899 30.9201 14.9399C31.285 14.553 31.5693 14.0973 31.7564 13.5995C31.9436 13.1016 32.0298 12.5715 32.0101 12.0399C32.0101 10.8399 31.6501 9.87994 30.9201 9.12994C30.5567 8.75555 30.1189 8.46154 29.6349 8.2669C29.1509 8.07225 28.6314 7.98131 28.1101 7.99994H23.4801C23.4429 7.99821 23.4059 8.00445 23.3714 8.01825C23.3369 8.03205 23.3057 8.05309 23.2801 8.07994C23.2527 8.10937 23.2315 8.14402 23.2177 8.18181C23.204 8.21961 23.198 8.25978 23.2001 8.29994V14.0999H21.2801C21.2412 14.0999 21.203 14.109 21.1683 14.1263C21.1335 14.1437 21.1033 14.1689 21.0801 14.1999C21.0296 14.2544 21.001 14.3257 21.0001 14.3999V15.7699C21.0001 15.8599 21.0301 15.9299 21.0801 15.9899C21.1301 16.0399 21.1901 16.0699 21.2801 16.0699H23.2001V17.1599H21.2801C21.2429 17.1582 21.2059 17.1645 21.1714 17.1783C21.1369 17.1921 21.1057 17.2131 21.0801 17.2399C21.0272 17.2969 20.9985 17.3722 21.0001 17.4499V18.6399C21.0001 18.7199 21.0301 18.7899 21.0801 18.8399C21.1301 18.8999 21.1901 18.9399 21.2801 18.9399V18.9299ZM25.1801 9.96994H27.9401C28.5401 9.96994 29.0401 10.1599 29.4001 10.5399C29.7801 10.9199 29.9601 11.4199 29.9601 12.0399C29.9601 12.6499 29.7801 13.1399 29.4001 13.5399C29.0301 13.9099 28.5401 14.0999 27.9401 14.0999H25.1901V9.96994H25.1801Z" fill="#F15D22"/>
</g>
<defs>
<clipPath id="clip0_5487_6200">
<rect width="53" height="53" fill="white"/>
</clipPath>
</defs>
</svg>
