<svg width="51" height="51" viewBox="0 0 51 51" fill="none" xmlns="http://www.w3.org/2000/svg">
<g clip-path="url(#clip0_5487_6196)">
<path d="M0.89 16.55C0.39 16.55 0 16.95 0 17.43V50.11C0 50.61 0.4 51 0.89 51H50.1C50.6 51 50.99 50.6 50.99 50.11V0.9C50.99 0.4 50.59 0.01 50.1 0.01H41.96C41.8359 -0.00321266 41.7104 0.0098317 41.5916 0.0482858C41.4729 0.08674 41.3635 0.149744 41.2707 0.233205C41.1779 0.316667 41.1037 0.418719 41.0529 0.532734C41.002 0.646749 40.9758 0.770177 40.9758 0.895C40.9758 1.01982 41.002 1.14325 41.0529 1.25727C41.1037 1.37128 41.1779 1.47333 41.2707 1.55679C41.3635 1.64026 41.4729 1.70326 41.5916 1.74171C41.7104 1.78017 41.8359 1.79321 41.96 1.78H49.22V49.24H26.44V44.97C26.814 43.9634 27.4007 43.0493 28.16 42.29V46.59C28.16 47.07 28.56 47.47 29.04 47.47H46.64C47.12 47.47 47.52 47.07 47.52 46.58V34.8C47.4967 34.5815 47.3935 34.3793 47.2301 34.2324C47.0667 34.0855 46.8547 34.0042 46.635 34.0042C46.4153 34.0042 46.2033 34.0855 46.0399 34.2324C45.8765 34.3793 45.7733 34.5815 45.75 34.8V45.7H29.93V40.98C30.27 40.8 30.62 40.64 30.99 40.51C31.1607 40.447 31.3081 40.3332 31.4121 40.1839C31.5162 40.0346 31.572 39.857 31.572 39.675C31.572 39.493 31.5162 39.3154 31.4121 39.1661C31.3081 39.0168 31.1607 38.903 30.99 38.84C30.6252 38.7107 30.2708 38.5536 29.93 38.37V5.31H45.75V30.66C45.7733 30.8785 45.8765 31.0807 46.0399 31.2276C46.2033 31.3745 46.4153 31.4558 46.635 31.4558C46.8547 31.4558 47.0667 31.3745 47.2301 31.2276C47.3935 31.0807 47.4967 30.8785 47.52 30.66V4.43C47.52 3.93 47.12 3.54 46.63 3.54H29.04C28.55 3.54 28.16 3.94 28.16 4.43V37.05C27.4007 36.2907 26.814 35.3766 26.44 34.37V1.77H37.84C38.0585 1.74674 38.2607 1.64348 38.4076 1.48009C38.5545 1.3167 38.6358 1.10473 38.6358 0.885C38.6358 0.665268 38.5545 0.453304 38.4076 0.289914C38.2607 0.126523 38.0585 0.0232588 37.84 0L0.89 0C0.39 0 0 0.4 0 0.89V13.29C0.0232588 13.5085 0.126523 13.7107 0.289914 13.8576C0.453304 14.0045 0.665268 14.0858 0.885 14.0858C1.10473 14.0858 1.3167 14.0045 1.48009 13.8576C1.64348 13.7107 1.74674 13.5085 1.77 13.29V1.78H24.67V21.83C23.8643 21.2694 23.2472 20.478 22.9 19.56V4.43C22.9 3.93 22.5 3.54 22.02 3.54H4.42C3.94 3.54 3.54 3.94 3.54 4.43V46.57C3.54 47.07 3.94 47.46 4.43 47.46H22.02C22.51 47.46 22.9 47.06 22.9 46.57V42.22C23.68 42.98 24.28 43.92 24.67 44.96V49.23H1.77V17.43C1.77 16.94 1.37 16.55 0.89 16.55ZM24.67 24.69V34.37C24.2891 35.4026 23.6846 36.3382 22.9 37.11V26.96C23.26 26.03 23.88 25.25 24.67 24.69ZM22.02 24.87C21.5777 24.2433 21.0295 23.6984 20.4 23.26C21.0303 22.8186 21.5786 22.2703 22.02 21.64C22.4584 22.2695 23.0033 22.8177 23.63 23.26C23.0041 23.6993 22.4593 24.2441 22.02 24.87ZM21.13 45.69H5.31V5.3H21.13V19.54C20.8782 20.2051 20.4835 20.8068 19.9738 21.3027C19.4641 21.7986 18.8517 22.1766 18.18 22.41C18.0093 22.473 17.8619 22.5868 17.7579 22.7361C17.6538 22.8854 17.598 23.063 17.598 23.245C17.598 23.427 17.6538 23.6046 17.7579 23.7539C17.8619 23.9032 18.0093 24.017 18.18 24.08C18.8517 24.3134 19.4641 24.6914 19.9738 25.1873C20.4835 25.6832 20.8782 26.2849 21.13 26.95V38.4C20.81 38.57 20.48 38.72 20.13 38.84C19.9593 38.903 19.8119 39.0168 19.7079 39.1661C19.6038 39.3154 19.548 39.493 19.548 39.675C19.548 39.857 19.6038 40.0346 19.7079 40.1839C19.8119 40.3332 19.9593 40.447 20.13 40.51C20.48 40.63 20.81 40.78 21.13 40.95V45.7V45.69ZM22.49 39.67C23.7452 38.904 24.7981 37.8477 25.56 36.59C26.3219 37.8477 27.3748 38.904 28.63 39.67C27.3759 40.4331 26.3231 41.4859 25.56 42.74C24.7969 41.4859 23.7441 40.4331 22.49 39.67Z" fill="#F15D22"/>
<path d="M39.42 25.4999C39.357 25.3291 39.2432 25.1818 39.0939 25.0778C38.9446 24.9737 38.767 24.9179 38.585 24.9179C38.403 24.9179 38.2254 24.9737 38.0761 25.0778C37.9268 25.1818 37.813 25.3291 37.75 25.4999C37.5343 26.1264 37.1792 26.6958 36.7115 27.1652C36.2438 27.6346 35.6757 27.9918 35.05 28.2099C34.8793 28.2729 34.7319 28.3867 34.6279 28.536C34.5238 28.6853 34.468 28.8629 34.468 29.0449C34.468 29.2269 34.5238 29.4045 34.6279 29.5538C34.7319 29.7031 34.8793 29.8169 35.05 29.8799C35.6747 30.0969 36.2421 30.4526 36.7097 30.9202C37.1773 31.3878 37.533 31.9552 37.75 32.5799C37.813 32.7506 37.9268 32.898 38.0761 33.002C38.2254 33.1061 38.403 33.1619 38.585 33.1619C38.767 33.1619 38.9446 33.1061 39.0939 33.002C39.2432 32.898 39.357 32.7506 39.42 32.5799C39.637 31.9552 39.9927 31.3878 40.4603 30.9202C40.9279 30.4526 41.4953 30.0969 42.12 29.8799C42.2907 29.8169 42.4381 29.7031 42.5421 29.5538C42.6462 29.4045 42.702 29.2269 42.702 29.0449C42.702 28.8629 42.6462 28.6853 42.5421 28.536C42.4381 28.3867 42.2907 28.2729 42.12 28.2099C41.4953 27.9929 40.9279 27.6372 40.4603 27.1696C39.9927 26.702 39.637 26.1346 39.42 25.5099V25.4999ZM38.58 30.3999C38.2034 29.882 37.7479 29.4265 37.23 29.0499C37.75 28.6699 38.21 28.2099 38.58 27.6899C38.96 28.2099 39.42 28.6699 39.94 29.0499C39.42 29.4199 38.96 29.8799 38.58 30.3999ZM17.12 11.5599C16.2207 11.2489 15.4035 10.7383 14.7298 10.0663C14.056 9.39428 13.5433 8.5784 13.23 7.67988C13.167 7.50914 13.0532 7.36181 12.9039 7.25775C12.7546 7.15369 12.577 7.0979 12.395 7.0979C12.213 7.0979 12.0354 7.15369 11.8861 7.25775C11.7368 7.36181 11.623 7.50914 11.56 7.67988C11.2478 8.57736 10.7365 9.39257 10.0646 10.0645C9.39269 10.7364 8.57748 11.2476 7.68 11.5599C7.50926 11.6229 7.36193 11.7367 7.25787 11.886C7.15381 12.0353 7.09802 12.2129 7.09802 12.3949C7.09802 12.5769 7.15381 12.7545 7.25787 12.9038C7.36193 13.0531 7.50926 13.1669 7.68 13.2299C8.57852 13.5432 9.39441 14.0559 10.0664 14.7296C10.7384 15.4034 11.249 16.2206 11.56 17.1199C11.623 17.2906 11.7368 17.438 11.8861 17.542C12.0354 17.6461 12.213 17.7019 12.395 17.7019C12.577 17.7019 12.7546 17.6461 12.9039 17.542C13.0532 17.438 13.167 17.2906 13.23 17.1199C13.542 16.2195 14.0542 15.4016 14.728 14.7278C15.4018 14.0541 16.2196 13.5419 17.12 13.2299C17.2907 13.1669 17.4381 13.0531 17.5421 12.9038C17.6462 12.7545 17.702 12.5769 17.702 12.3949C17.702 12.2129 17.6462 12.0353 17.5421 11.886C17.4381 11.7367 17.2907 11.6229 17.12 11.5599ZM12.4 14.8099C11.7755 13.8423 10.9502 13.0204 9.98 12.3999C10.9512 11.7765 11.7766 10.9511 12.4 9.97988C13.02 10.9499 13.84 11.7799 14.81 12.3999C13.8435 13.0215 13.0216 13.8434 12.4 14.8099Z" fill="#F15D22"/>
</g>
<defs>
<clipPath id="clip0_5487_6196">
<rect width="51" height="51" fill="white"/>
</clipPath>
</defs>
</svg>
