<svg width="38" height="56" viewBox="0 0 38 56" fill="none" xmlns="http://www.w3.org/2000/svg">
<g clip-path="url(#clip0_5487_6190)">
<path d="M26.82 55.52H23.12C22.875 55.5174 22.641 55.4182 22.4688 55.2441C22.2965 55.07 22.1999 54.8349 22.2 54.59V0.93C22.2 0.41 22.61 0 23.12 0H26.82C27.33 0 27.75 0.41 27.75 0.93V54.59C27.75 55.1 27.33 55.52 26.82 55.52ZM24.0499 53.67H25.9V1.85H24.0499V53.67Z" fill="#F15D22"/>
<path d="M23.12 55.52C22.9998 55.5197 22.8809 55.4959 22.77 55.45L2.40997 47.12C2.24224 47.0496 2.09884 46.9315 1.99753 46.7804C1.89622 46.6294 1.84143 46.4519 1.83997 46.27V9.23998C1.83997 8.86998 2.06997 8.52998 2.40997 8.38998L22.77 0.0699834C22.9109 0.0100327 23.0646 -0.0137798 23.2171 0.000706078C23.3696 0.0151919 23.516 0.0675177 23.6431 0.152937C23.7703 0.238356 23.8741 0.354164 23.9451 0.489858C24.0162 0.625551 24.0522 0.776834 24.05 0.929983V54.59C24.05 55.1 23.63 55.52 23.12 55.52ZM3.69997 45.64L22.2 53.21V2.30998L3.69997 9.85998V45.63V45.64Z" fill="#F15D22"/>
<path d="M19.42 50.25C19.2925 50.2493 19.1665 50.222 19.05 50.17L6.10004 44.51C5.93418 44.4381 5.79288 44.3194 5.69343 44.1684C5.59397 44.0175 5.54067 43.8408 5.54004 43.66V11.86C5.54004 11.49 5.76004 11.16 6.10004 11.01L19.05 5.35001C19.1905 5.28907 19.3439 5.26376 19.4965 5.27633C19.6491 5.28891 19.7962 5.33897 19.9249 5.42207C20.0535 5.50518 20.1596 5.61875 20.2338 5.75272C20.3079 5.88668 20.3479 6.03689 20.35 6.19001V49.33C20.35 49.83 19.93 50.25 19.42 50.25ZM7.39004 43.05L18.49 47.91V7.61001L7.40004 12.46V43.06L7.39004 43.05Z" fill="#F15D22"/>
<path d="M10.17 21.2799C10.0477 21.2805 9.92637 21.257 9.81312 21.2107C9.69986 21.1643 9.59686 21.0961 9.51002 21.0099L0.260022 11.7599C0.120263 11.5815 0.0504518 11.3582 0.0637034 11.132C0.0769549 10.9057 0.172357 10.6921 0.331988 10.5313C0.491619 10.3704 0.704492 10.2734 0.930618 10.2584C1.15674 10.2434 1.38056 10.3115 1.56002 10.4499L10.82 19.6999C10.952 19.828 11.0425 19.9927 11.0799 20.1727C11.1173 20.3528 11.0999 20.5399 11.0299 20.7099C10.96 20.88 10.8407 21.0252 10.6874 21.1268C10.5341 21.2284 10.3539 21.2817 10.17 21.2799ZM10.17 31.4599C10.0476 31.4611 9.92613 31.4378 9.8128 31.3914C9.69947 31.3451 9.59653 31.2765 9.51002 31.1899L0.260022 21.9399C0.120263 21.7615 0.0504518 21.5382 0.0637034 21.312C0.0769549 21.0857 0.172357 20.8721 0.331988 20.7113C0.491619 20.5504 0.704492 20.4534 0.930618 20.4384C1.15674 20.4234 1.38056 20.4915 1.56002 20.6299L10.82 29.8799C10.9471 30.0099 11.0333 30.1742 11.0679 30.3526C11.1026 30.5311 11.0842 30.7157 11.0151 30.8838C10.9459 31.0519 10.829 31.1961 10.6788 31.2984C10.5287 31.4008 10.3518 31.457 10.17 31.4599ZM10.17 41.6399C10.0476 41.6411 9.92613 41.6178 9.8128 41.5714C9.69947 41.5251 9.59653 41.4565 9.51002 41.3699L0.260022 32.0999C0.0990391 31.9252 0.011839 31.6951 0.01667 31.4576C0.021501 31.2202 0.117989 30.9938 0.285941 30.8258C0.453894 30.6579 0.680296 30.5614 0.917768 30.5565C1.15524 30.5517 1.38538 30.6389 1.56002 30.7999L10.82 40.0499C10.9471 40.1799 11.0333 40.3442 11.0679 40.5226C11.1026 40.7011 11.0842 40.8857 11.0151 41.0538C10.9459 41.2219 10.829 41.3661 10.6788 41.4684C10.5287 41.5708 10.3518 41.627 10.17 41.6299V41.6399ZM36.07 35.1599C35.8264 35.1585 35.5929 35.0616 35.42 34.8899L26.17 25.6399C26.0303 25.4615 25.9605 25.2382 25.9737 25.012C25.987 24.7857 26.0824 24.5721 26.242 24.4113C26.4016 24.2504 26.6145 24.1534 26.8406 24.1384C27.0667 24.1234 27.2906 24.1915 27.47 24.3299L36.73 33.5799C36.8626 33.7086 36.9534 33.8742 36.9905 34.0552C37.0277 34.2362 37.0094 34.4242 36.9382 34.5947C36.867 34.7652 36.7461 34.9103 36.5912 35.0111C36.4364 35.1119 36.2548 35.1638 36.07 35.1599ZM36.07 45.3399C35.8261 45.3396 35.5923 45.2425 35.42 45.0699L26.17 35.8199C26.0303 35.6415 25.9605 35.4182 25.9737 35.192C25.987 34.9657 26.0824 34.7521 26.242 34.5913C26.4016 34.4304 26.6145 34.3334 26.8406 34.3184C27.0667 34.3034 27.2906 34.3715 27.47 34.5099L36.73 43.7599C36.8576 43.8905 36.944 44.0557 36.9783 44.2351C37.0126 44.4144 36.9934 44.5999 36.923 44.7684C36.8527 44.9368 36.7342 45.0809 36.5826 45.1825C36.4309 45.2841 36.2526 45.3389 36.07 45.3399ZM36.17 25.0999C36.0469 25.0998 35.925 25.0749 35.8116 25.0268C35.6983 24.9787 35.5957 24.9084 35.51 24.8199L26.26 15.5699C26.1203 15.3915 26.0505 15.1682 26.0637 14.942C26.077 14.7157 26.1724 14.5021 26.332 14.3413C26.4916 14.1804 26.7045 14.0834 26.9306 14.0684C27.1567 14.0534 27.3806 14.1215 27.56 14.2599L36.82 23.5099C36.9471 23.6399 37.0333 23.8042 37.0679 23.9826C37.1026 24.1611 37.0842 24.3457 37.0151 24.5138C36.9459 24.6819 36.829 24.8261 36.6788 24.9284C36.5287 25.0308 36.3518 25.087 36.17 25.0899V25.0999Z" fill="#F15D22"/>
</g>
<defs>
<clipPath id="clip0_5487_6190">
<rect width="38" height="56" fill="white"/>
</clipPath>
</defs>
</svg>
