<svg width="33" height="49" viewBox="0 0 33 49" fill="none" xmlns="http://www.w3.org/2000/svg">
<g clip-path="url(#clip0_5487_6186)">
<path fill-rule="evenodd" clip-rule="evenodd" d="M32.26 9.58V9.55L32.24 9.43C32.2325 9.38942 32.2225 9.34934 32.21 9.31L32.2 9.28C32.1851 9.24579 32.1684 9.21241 32.15 9.18V9.17C32.1288 9.1352 32.1055 9.1018 32.08 9.07C32.08 9.05 32.07 9.05 32.06 9.04C32.0356 9.00492 32.0089 8.97152 31.98 8.94L23.32 0.28C23.2885 0.251137 23.2551 0.224411 23.22 0.2L23.19 0.18C23.0788 0.102103 22.9529 0.047664 22.82 0.02L22.7 0H0.96C0.705392 0 0.461212 0.101143 0.281177 0.281177C0.101143 0.461212 0 0.705392 0 0.96L0 41.92C0 42.45 0.43 42.88 0.96 42.88H15.36V48.04C15.3606 48.2112 15.407 48.3791 15.4943 48.5264C15.5816 48.6736 15.7067 48.7949 15.8567 48.8775C16.0066 48.9601 16.176 49.0011 16.3471 48.9963C16.5182 48.9915 16.685 48.941 16.83 48.85L20.48 46.57L24.12 48.85C24.2643 48.9405 24.4301 48.991 24.6004 48.9963C24.7707 49.0015 24.9393 48.9614 25.089 48.8799C25.2386 48.7985 25.3639 48.6787 25.452 48.5329C25.54 48.387 25.5876 48.2204 25.59 48.05V42.88H31.3C31.83 42.88 32.26 42.45 32.26 41.92V9.58ZM23.6 3.27L28.99 8.66H23.59V3.26L23.6 3.27ZM14.9 29.56C14.8154 29.3674 14.7517 29.1662 14.71 28.96C14.79 28.86 15.05 28.7 15.21 28.6C15.55 28.38 15.93 28.14 16.21 27.76C16.5 27.37 16.61 26.93 16.71 26.53C16.76 26.36 16.83 26.08 16.89 25.98C16.93 25.97 16.99 25.96 17.13 25.96L17.48 25.97L17.93 25.99C18.28 25.99 18.56 25.95 18.81 25.86C19.25 25.72 19.61 25.43 19.91 25.18C20.08 25.04 20.37 24.81 20.47 24.8C20.58 24.81 20.87 25.04 21.04 25.18C21.35 25.43 21.7 25.72 22.14 25.86C22.4 25.95 22.68 25.99 23.02 25.99L23.47 25.97L23.82 25.96C23.96 25.96 24.02 25.96 24.06 25.98C24.12 26.08 24.19 26.36 24.24 26.53C24.34 26.93 24.46 27.37 24.74 27.76C25.02 28.14 25.4 28.38 25.74 28.6C25.9 28.7 26.16 28.86 26.24 28.96C26.24 29.08 26.13 29.38 26.06 29.56C25.92 29.95 25.76 30.39 25.76 30.87C25.76 31.37 25.92 31.8 26.06 32.19C26.13 32.37 26.24 32.67 26.24 32.79C26.16 32.89 25.9 33.05 25.74 33.15C25.4 33.37 25.02 33.61 24.74 33.99C24.46 34.38 24.34 34.82 24.24 35.22C24.19 35.39 24.12 35.67 24.06 35.77C24.03 35.77 23.96 35.79 23.82 35.79L23.47 35.78L23.02 35.76C22.68 35.76 22.4 35.8 22.15 35.89C21.7 36.03 21.35 36.32 21.05 36.57C20.87 36.7 20.59 36.93 20.48 36.95C20.36 36.93 20.08 36.7 19.91 36.57C19.61 36.32 19.25 36.03 18.81 35.89C18.5258 35.7985 18.2285 35.7546 17.93 35.76L17.48 35.78C17.2834 35.788 17.0866 35.788 16.89 35.78C16.83 35.67 16.76 35.38 16.71 35.22C16.61 34.82 16.5 34.38 16.21 33.99C15.933 33.6491 15.5936 33.364 15.21 33.15C15.05 33.05 14.79 32.89 14.71 32.79C14.71 32.67 14.83 32.37 14.89 32.19C15.04 31.8 15.19 31.36 15.19 30.87C15.19 30.39 15.04 29.95 14.89 29.56H14.9ZM23.67 46.31L21 44.63C20.8472 44.5342 20.6704 44.4833 20.49 44.4833C20.3096 44.4833 20.1328 44.5342 19.98 44.63L17.29 46.31V37.7C17.5068 37.6983 17.7235 37.6916 17.94 37.68C18.11 37.68 18.18 37.69 18.21 37.7C18.33 37.74 18.55 37.92 18.72 38.06C19.17 38.42 19.72 38.86 20.49 38.86C21.25 38.86 21.8 38.42 22.25 38.06C22.43 37.92 22.65 37.74 22.76 37.7C22.79 37.7 22.86 37.68 23.03 37.68H23.38L23.68 37.7V46.31H23.67ZM25.59 40.96V36.93C25.87 36.54 25.99 36.08 26.09 35.7C26.14 35.5 26.22 35.21 26.29 35.12C26.35 35.03 26.59 34.88 26.77 34.77C27.24 34.47 27.83 34.1 28.06 33.4C28.29 32.7 28.05 32.05 27.86 31.53C27.76 31.29 27.67 31.03 27.67 30.87C27.67 30.73 27.77 30.46 27.86 30.22C28.05 29.69 28.29 29.04 28.06 28.35C27.83 27.65 27.24 27.28 26.76 26.98C26.5867 26.8827 26.4256 26.7653 26.28 26.63C26.1929 26.4453 26.1291 26.2504 26.09 26.05C25.95 25.52 25.79 24.85 25.19 24.43C24.73 24.09 24.19 24.05 23.82 24.05L23.37 24.06L23.02 24.07C22.9295 24.0764 22.8386 24.0697 22.75 24.05C22.5694 23.9506 22.4016 23.8297 22.25 23.69C21.79 23.33 21.24 22.89 20.48 22.89C19.71 22.89 19.16 23.33 18.71 23.69C18.54 23.83 18.31 24.01 18.21 24.05C18.17 24.05 18.11 24.07 17.93 24.07L17.58 24.06L17.13 24.05C16.76 24.05 16.23 24.09 15.76 24.43C15.17 24.86 15 25.52 14.86 26.05C14.81 26.25 14.74 26.54 14.67 26.63C14.61 26.72 14.37 26.87 14.18 26.98C13.71 27.28 13.13 27.65 12.89 28.35C12.66 29.05 12.9 29.69 13.09 30.22C13.19 30.46 13.29 30.72 13.29 30.87C13.29 31.02 13.19 31.29 13.09 31.53C12.9 32.05 12.66 32.71 12.89 33.4C13.13 34.1 13.71 34.47 14.19 34.77C14.36 34.88 14.61 35.03 14.67 35.12C14.74 35.22 14.81 35.49 14.87 35.7C14.97 36.08 15.08 36.54 15.37 36.93V40.96H1.9V1.91H21.67V9.61C21.67 10.15 22.1 10.57 22.63 10.57H30.33V40.97H25.6L25.59 40.96Z" fill="#F15D22"/>
<path fill-rule="evenodd" clip-rule="evenodd" d="M5.62994 10.57H17.9599C18.1964 10.5458 18.4154 10.4347 18.5747 10.2583C18.7339 10.0819 18.8221 9.8527 18.8221 9.61503C18.8221 9.37736 18.7339 9.14814 18.5747 8.97173C18.4154 8.79532 18.1964 8.68425 17.9599 8.66003H5.62994C5.49632 8.64634 5.36131 8.66084 5.23364 8.7026C5.10598 8.74436 4.9885 8.81244 4.88879 8.90245C4.78909 8.99246 4.70938 9.10239 4.65483 9.22514C4.60028 9.34788 4.57209 9.48071 4.57209 9.61503C4.57209 9.74935 4.60028 9.88218 4.65483 10.0049C4.70938 10.1277 4.78909 10.2376 4.88879 10.3276C4.9885 10.4176 5.10598 10.4857 5.23364 10.5275C5.36131 10.5692 5.49632 10.5837 5.62994 10.57V10.57ZM26.7299 13.5H5.62994C5.49363 13.4802 5.35464 13.4899 5.22242 13.5286C5.09021 13.5672 4.96785 13.6339 4.86368 13.724C4.7595 13.8141 4.67593 13.9256 4.61866 14.0509C4.56138 14.1761 4.53174 14.3123 4.53174 14.45C4.53174 14.5878 4.56138 14.7239 4.61866 14.8492C4.67593 14.9745 4.7595 15.086 4.86368 15.1761C4.96785 15.2662 5.09021 15.3328 5.22242 15.3715C5.35464 15.4101 5.49363 15.4199 5.62994 15.4H26.7299C26.8663 15.4199 27.0052 15.4101 27.1375 15.3715C27.2697 15.3328 27.392 15.2662 27.4962 15.1761C27.6004 15.086 27.6839 14.9745 27.7412 14.8492C27.7985 14.7239 27.8281 14.5878 27.8281 14.45C27.8281 14.3123 27.7985 14.1761 27.7412 14.0509C27.6839 13.9256 27.6004 13.8141 27.4962 13.724C27.392 13.6339 27.2697 13.5672 27.1375 13.5286C27.0052 13.4899 26.8663 13.4802 26.7299 13.5V13.5ZM22.8999 18.32H5.62994C5.37533 18.32 5.13115 18.4212 4.95112 18.6012C4.77108 18.7812 4.66994 19.0254 4.66994 19.28C4.66994 19.5346 4.77108 19.7788 4.95112 19.9589C5.13115 20.1389 5.37533 20.24 5.62994 20.24H22.8999C23.1545 20.24 23.3987 20.1389 23.5788 19.9589C23.7588 19.7788 23.8599 19.5346 23.8599 19.28C23.8599 19.0254 23.7588 18.7812 23.5788 18.6012C23.3987 18.4212 23.1545 18.32 22.8999 18.32V18.32ZM26.7299 18.32C26.4753 18.32 26.2312 18.4212 26.0511 18.6012C25.8711 18.7812 25.7699 19.0254 25.7699 19.28C25.7699 19.5346 25.8711 19.7788 26.0511 19.9589C26.2312 20.1389 26.4753 20.24 26.7299 20.24C26.9845 20.24 27.2287 20.1389 27.4088 19.9589C27.5888 19.7788 27.6899 19.5346 27.6899 19.28C27.6899 19.0254 27.5888 18.7812 27.4088 18.6012C27.2287 18.4212 26.9845 18.32 26.7299 18.32V18.32Z" fill="#F15D22"/>
</g>
<defs>
<clipPath id="clip0_5487_6186">
<rect width="33" height="49" fill="white"/>
</clipPath>
</defs>
</svg>
