<svg width="10" height="22" viewBox="0 0 10 22" fill="none" xmlns="http://www.w3.org/2000/svg">
<path d="M3.51562 0C1.57711 0 0 1.73482 0 3.86719V16.8438C0 19.6869 2.10281 22 4.6875 22C7.27219 22 9.375 19.6869 9.375 16.8438V3.86719H8.20312V16.8438C8.20312 18.9761 6.62602 20.7109 4.6875 20.7109C2.74898 20.7109 1.17188 18.9761 1.17188 16.8438V3.86719C1.17188 2.44561 2.22328 1.28906 3.51562 1.28906C4.80797 1.28906 5.85938 2.44561 5.85938 3.86719V14.2656C5.85938 14.9764 5.33367 15.5547 4.6875 15.5547C4.04133 15.5547 3.51562 14.9764 3.51562 14.2656V3.86719H2.34375V14.2656C2.34375 15.6872 3.39516 16.8438 4.6875 16.8438C5.97984 16.8438 7.03125 15.6872 7.03125 14.2656V3.86719C7.03125 1.73482 5.45414 0 3.51562 0Z" fill="#F15D22"/>
</svg>
